<svg width="528" height="340" viewBox="0 0 528 340" fill="none" xmlns="http://www.w3.org/2000/svg">
<path d="M452.493 279.177C460.46 271.432 465.308 254.692 463.147 240.146C456.196 193.365 408.868 171.628 375.94 160.233C304.391 135.474 305.659 41.5589 213.959 26.2969C132.447 12.7297 76.498 70.6523 69.8829 152.984C63.5427 231.894 113.606 275.672 115.785 279.177H452.493Z" fill="#FDF3F0"/>
<path d="M98.0814 273.355C97.8047 273.036 70.2721 240.77 61.2967 190.55C56.2563 162.348 56.6902 116.251 56.6951 115.787L58.0447 115.802C58.0399 116.264 57.6072 162.236 62.6252 190.313C71.5325 240.151 98.8275 272.156 99.1025 272.473L98.0814 273.355Z" fill="#FFD7CC"/>
<path d="M437.142 274.969L435.947 274.339C436.051 274.148 446.133 254.856 450.671 228.578C453.7 211.044 455.778 185.493 455.801 185.237L457.144 185.345C457.124 185.602 455.04 211.212 452.003 228.806C447.426 255.308 437.246 274.776 437.142 274.969Z" fill="#FFD7CC"/>
<path d="M453.984 278.334L453.109 277.308C453.234 277.204 465.454 266.712 471.945 254.483C478.462 242.205 483.974 221.108 484.03 220.896L485.335 221.234C485.278 221.447 479.728 242.698 473.136 255.116C466.52 267.577 454.109 278.228 453.984 278.334Z" fill="#FFD7CC"/>
<path d="M57.1151 127.084C57.9701 124.669 59.0506 122.75 59.9533 121.095C61.4152 118.417 62.5238 115.769 63.4096 112.76C64.6663 108.493 64.7938 103.404 64.3884 98.9106C64.0798 95.4916 62.2066 86.395 57.7574 87.2229C53.6721 87.9836 51.7126 95.3875 51.1521 98.8418C50.2346 104.498 51.8816 110.38 53.9011 115.594C55.331 119.287 57.1173 123.079 57.1151 127.084Z" fill="#FFD7CC"/>
<path d="M59.2922 148.913C58.8722 150.259 58.2416 151.789 58.3053 153.257C61.6544 152.278 64.9768 150.535 68.2852 148.543C74.1906 144.991 78.658 138.923 79.9775 132.11C80.2411 130.748 80.9441 127.077 79.3154 126.397C78.1591 125.915 75.2948 127.774 74.3154 128.355C71.2303 130.184 68.5359 132.625 66.1199 135.282C64.6357 136.913 63.1882 138.696 62.1164 140.604C60.689 143.144 60.1487 146.165 59.2922 148.913Z" fill="#FFD7CC"/>
<path d="M40.2492 150.266C43.8975 153.008 49.0391 153.452 53.0891 155.311C54.3423 155.885 55.8063 156.451 56.9071 157.289C57.5635 157.788 57.9443 158.6 58.4752 158.355C58.4454 156.422 57.0753 154.578 56.3028 152.887C55.0355 150.113 53.6523 147.947 52.0394 145.393C48.2063 139.324 45.8726 132.177 40.4481 127.077C39.1411 125.848 36.3831 122.961 34.3273 124.353C32.6106 125.517 32.8855 129.138 32.8095 130.869C32.5036 137.836 34.2685 145.767 40.2492 150.266Z" fill="#FFD7CC"/>
<path d="M89.8452 159.374C88.5742 158.624 84.6673 160.437 83.4583 160.75C75.4844 162.822 67.4422 166.204 63.8662 174.13C62.8859 176.303 62.6215 178.55 62.0133 180.792C61.6257 182.219 60.9108 183.727 61.0259 185.207C63.8671 182.694 69.2212 183.116 72.4377 181.993C79.9486 179.37 86.2441 173.966 89.0594 166.538C89.6644 164.941 92.1118 160.716 89.8452 159.374Z" fill="#FFD7CC"/>
<path d="M62.896 196.422C63.1966 192.11 59.3816 188.174 56.4305 185.563C51.1735 180.911 45.7266 176.506 38.6823 174.846C36.2961 174.285 35.8087 174.871 35.8614 177.126C35.9412 180.55 38.1259 184.968 40.0598 187.48C43.1376 191.479 47.4497 193.741 52.0021 195.098C55.4974 196.139 59.1082 196.372 62.896 196.422Z" fill="#FFD7CC"/>
<path d="M83.4832 192.463C79.9305 192.983 76.1765 197.739 74.411 200.488C70.6595 206.332 70.2073 212.988 70.2073 219.706C72.6426 219.274 75.1716 218.389 77.5136 217.029C79.7248 215.742 81.4926 213.753 83.0781 211.764C85.4319 208.816 87.2137 205.522 87.2103 201.687C87.208 198.938 87.8699 191.821 83.4832 192.463Z" fill="#FFD7CC"/>
<path d="M66.3303 219.941C62.9686 218.142 59.1605 217.15 55.4221 216.379C53.1777 215.915 45.6686 213.828 46.0616 218.093C46.5179 223.044 54.2099 227.175 58.3792 228.389C63.2006 229.795 67.8235 228.604 72.5661 228.149C72.5448 227.511 72.3863 226.894 71.5676 225.314C69.8358 223.042 69.0225 221.38 66.3303 219.941Z" fill="#FFD7CC"/>
<path d="M453.396 184.265C454.059 185.759 455.384 187.14 455.962 188.775C456.532 187.845 458.138 186.863 459.119 185.541C460.599 183.544 461.632 180.998 461.921 178.532C462.29 175.405 461.62 172.181 461.104 169.123C460.693 166.691 460.866 163.976 459.921 161.657C459.383 160.332 458.79 159.321 457.664 160.474C456.356 161.811 455.849 164.87 455.021 166.536C452.857 170.892 451.89 174.7 452.355 179.539C452.505 181.113 452.746 182.802 453.396 184.265Z" fill="#FFD7CC"/>
<path d="M453.754 211.717C456.936 210.206 461.203 210.832 464.287 209.311C467.289 207.828 469.874 205.302 471.416 202.286C472.197 200.755 475.07 194.706 473.272 193.22C472.048 192.209 468.352 194.928 467.528 195.4C465.184 196.74 462.372 197.885 460.375 199.662C456.872 202.782 455.173 207.455 453.754 211.717Z" fill="#FFD7CC"/>
<path d="M443.149 206.258C446.64 209.155 452.43 211.783 453.072 216.307C453.072 212.483 453.063 209.622 451.507 206.065C450.034 202.697 448.105 198.88 445.439 196.298C443.385 194.309 439.085 190.618 436.058 190.653C435.432 192.68 436.308 194.796 437.006 196.678C438.407 200.45 439.999 203.649 443.149 206.258Z" fill="#FFD7CC"/>
<path d="M467.997 235.548C468.865 234.64 470.311 233.1 469.705 231.686C469.09 230.242 466.935 230.692 465.616 230.749C461.906 230.908 458.394 231.294 455.099 233.101C452.904 234.306 449.461 236.452 449.329 239.249C449.854 238.917 455.492 241.301 457.676 241.118C462.004 240.755 465.086 238.586 467.997 235.548Z" fill="#FFD7CC"/>
<path d="M438.074 225.815C434.476 223.85 434.818 229.348 435.522 231.602C436.475 234.661 439.169 237.133 442.015 238.441C444.677 239.666 446.893 240.03 448.652 241.289C448.654 234.45 443.862 228.974 438.074 225.815Z" fill="#FFD7CC"/>
<path d="M491.502 222.68C494.066 218.013 493.708 213.337 493.708 208.211C493.708 206.295 494.084 203.43 493.193 201.776C491.929 199.441 490.192 202.606 488.783 203.895C484.885 207.457 482.511 210.294 481.265 215.263C480.086 219.983 481.362 224.164 482.317 228.714C485.454 227.301 489.347 226.599 491.502 222.68Z" fill="#FFD7CC"/>
<path d="M499.322 240.317C498.205 238.606 495.667 240.089 494.034 240.488C490.163 241.437 486.363 240.7 482.671 242.277C479.276 243.726 476.329 245.306 475.344 249.106C478.297 249.875 481.682 252.139 485.077 251.995C490.246 251.775 494.721 249.842 497.883 245.711C498.794 244.522 500.32 241.84 499.322 240.317Z" fill="#FFD7CC"/>
<path d="M470.38 251.965C469.351 248.236 465.848 245.823 462.592 244.475C459.768 243.306 459.08 244.438 459.193 247.368C459.326 250.87 460.228 253.756 463.118 255.776C465.013 257.101 467.64 257.501 470.244 259.303C469.472 257.105 471.05 254.393 470.38 251.965Z" fill="#FFD7CC"/>
<path d="M478.119 266.408C475.733 265.051 473.953 263.147 471.012 263.21C468.742 263.259 466.662 264.332 465.314 266.1C464.831 267.121 464.516 267.121 464.205 267.121C466.902 266.885 468.843 270.225 471.43 270.826C473.831 271.382 477.059 270.807 479.338 270.074C483.689 268.671 479.979 267.467 478.119 266.408Z" fill="#FFD7CC"/>
<path d="M170.909 229.235H63.5874C56.2223 229.235 50.2521 235.203 50.2521 242.564C50.2521 249.926 56.2223 255.892 63.5874 255.892H170.909C169.978 252.067 169.434 247.487 169.434 242.564C169.434 237.64 169.978 233.061 170.909 229.235Z" fill="#FFD7CC"/>
<path d="M64.5248 255.892H62.6497V229.235H64.5248V255.892Z" fill="#FEA123"/>
<path d="M174.768 257.546H63.5875C55.3225 257.546 48.5982 250.826 48.5982 242.564C48.5982 234.303 55.3225 227.583 63.5875 227.583H174.768V230.888H63.5875C57.1465 230.888 51.906 236.125 51.906 242.564C51.906 249.002 57.1465 254.24 63.5875 254.24H174.768V257.546Z" fill="#001674"/>
<path d="M169.567 238.408C169.622 237.524 169.696 236.658 169.787 235.811H169.789L169.567 238.408Z" fill="#FEF9F8"/>
<path d="M169.567 238.408L104.843 236.317L169.789 235.811C169.696 236.658 169.622 237.524 169.567 238.408Z" fill="#FFEBE6"/>
<path d="M169.789 248.604L169.715 248.602C169.597 247.355 169.515 246.067 169.471 244.75H169.473L169.789 248.604Z" fill="#FEF9F8"/>
<path d="M169.715 248.602L77.6516 248.082L169.473 244.75C169.515 246.067 169.597 247.355 169.715 248.602Z" fill="#FFEBE6"/>
<path d="M57.7541 259.199H165.076C172.44 259.199 178.411 265.167 178.411 272.527C178.411 279.889 172.44 285.855 165.076 285.855H57.7541C58.685 282.03 59.2282 277.452 59.2282 272.527C59.2282 267.603 58.685 263.024 57.7541 259.199Z" fill="#FFD7CC"/>
<path d="M164.138 285.855H166.013V259.199H164.138V285.855Z" fill="#020A2E"/>
<path d="M53.8949 287.509H165.075C173.34 287.509 180.064 280.787 180.064 272.527C180.064 264.267 173.34 257.546 165.075 257.546H53.8949V260.851H165.075C171.516 260.851 176.758 266.089 176.758 272.527C176.758 278.965 171.516 284.203 165.075 284.203H53.8949V287.509Z" fill="#D81F33"/>
<path d="M59.0954 268.371L58.8742 265.775C58.9664 266.621 59.0403 267.487 59.0968 268.371H59.0954Z" fill="white"/>
<path d="M59.0968 268.371C59.0403 267.487 58.9664 266.621 58.8757 265.775L123.82 266.28L59.0955 268.371" fill="#FFEBE6"/>
<path d="M58.8742 278.567L59.1909 274.712C59.1485 276.03 59.066 277.318 58.9478 278.566L58.8742 278.567Z" fill="white"/>
<path d="M58.9478 278.566C59.066 277.318 59.1485 276.03 59.1922 274.713L151.011 278.047L58.9478 278.566Z" fill="#FFEBE6"/>
<path d="M207.305 97.3019C184.152 99.7251 165.382 117.593 165.382 137.208V137.233C165.385 138.793 164.495 140.217 163.079 140.871L150.871 146.51L164.83 147.416C166.271 147.51 167.546 148.38 168.159 149.687C174.145 162.451 189.377 170.211 207.305 168.333C230.458 165.91 249.227 148.043 249.227 128.427C249.227 108.813 230.458 94.8771 207.305 97.3019Z" fill="#FFD7CC"/>
<path d="M314.28 68.2103C337.432 70.6335 356.202 88.5008 356.202 108.116V108.141C356.198 109.701 357.089 111.124 358.504 111.778L370.712 117.417L356.753 118.324C355.313 118.418 354.037 119.288 353.425 120.595C347.437 133.359 332.206 141.119 314.28 139.242C291.125 136.818 272.355 118.951 272.355 99.3371C272.355 79.7217 291.125 65.7848 314.28 68.2103Z" fill="#FFD7CC"/>
<path d="M214.837 107.797C213.972 107.797 213.199 108.007 212.71 108.587C211.08 110.521 212.492 113.777 214.012 115.472C215.351 116.963 216.861 117.987 218.51 118.795C218.74 118.662 218.968 118.524 219.192 118.38C221.121 117.146 222.93 114.791 222.226 111.888C221.771 110.006 220.119 109.112 217.777 108.351C216.861 108.054 215.793 107.797 214.837 107.797ZM226.698 121.54C227.636 121.782 228.6 122.043 229.539 122.358C229.254 122.007 228.896 121.764 228.459 121.626C227.947 121.463 227.347 121.446 226.698 121.54ZM224.289 122.261C222.166 123.156 220.018 124.637 218.889 125.666C216.766 127.601 215.764 130.033 216.023 132.447C218.884 132.16 221.705 131.628 224.319 130.447C227.752 128.901 230.837 127.048 230.235 123.992C228.81 123.413 227.216 123.008 225.65 122.612C225.185 122.494 224.731 122.378 224.289 122.261ZM197.093 120.652C196.808 120.803 196.517 120.995 196.22 121.231C194.399 122.671 192.372 125.2 192.147 127.98C192.003 129.774 192.314 132.431 193.456 132.721C194.578 133.008 196.279 130.881 196.799 129.677C197.653 127.702 197.485 125.383 197.322 123.139L197.277 122.486C197.236 121.903 197.177 121.284 197.093 120.652ZM216.282 133.725C216.349 133.954 216.43 134.182 216.52 134.407C217.838 137.656 221.176 139.688 225.039 139.562C228.778 139.448 233.33 138.002 234.892 134.288C236.03 131.588 235.258 127.693 233.21 125.784C232.738 125.344 232.197 124.97 231.609 124.642C231.703 128.541 227.139 130.598 224.854 131.629C222.113 132.865 219.21 133.423 216.282 133.725ZM217.522 140.555C216.772 140.555 216.082 140.825 215.496 141.361C214.204 142.541 213.72 144.729 214.372 146.451C214.83 147.667 215.64 148.526 216.776 149.003C217.231 149.195 217.718 149.319 218.226 149.388C219.16 148.588 219.823 147.551 220.116 146.091C220.682 143.263 220.375 141.542 219.204 140.975C218.626 140.694 218.058 140.555 217.522 140.555ZM202.949 138.723C201.845 138.723 200.081 139.843 199.121 141.225C197.352 143.771 197.572 147.772 199.599 149.964C199.926 150.316 200.272 150.63 200.633 150.909C203.012 148.211 204.303 144.395 204.126 140.452C204.083 139.48 203.804 138.913 203.301 138.768C203.194 138.736 203.075 138.723 202.949 138.723ZM192.201 156.049C191.596 156.049 190.981 156.009 190.356 155.929C188.004 155.625 185.859 154.273 184.318 152.123C182.522 149.618 181.793 146.417 182.369 143.562C183.791 136.516 194.37 134.852 200.692 133.856C201.438 133.739 202.13 133.63 202.744 133.522C205.413 133.055 208.187 132.919 210.87 132.788C212.149 132.726 213.439 132.662 214.728 132.561C214.425 129.749 215.573 126.933 218.016 124.709C218.669 124.111 220.388 122.773 222.413 121.707C221.1 121.268 219.808 120.812 218.565 120.247C213.8 122.786 208.175 123.208 203.231 121.334L202.68 121.124C201.038 120.493 199.703 119.979 198.34 120.216C198.449 120.968 198.523 121.707 198.57 122.399L198.616 123.047C198.789 125.445 198.968 127.925 197.989 130.19C197.466 131.398 195.35 134.538 193.137 133.977C190.494 133.305 190.812 128.43 190.855 127.876C191.075 125.161 192.779 122.298 195.415 120.214C195.912 119.821 196.398 119.527 196.875 119.315C196.448 117.137 195.657 115.006 194.21 113.866C193.261 113.117 192.124 112.867 190.729 113.102C186.44 113.823 184.484 119.952 183.434 123.245C182.875 125.001 182.467 126.857 182.033 128.82C181.334 132.002 180.61 135.292 179.187 138.101C177.47 141.495 174.854 142.949 170.439 142.968L170.434 141.672C174.345 141.656 176.544 140.452 178.031 137.517C179.379 134.854 180.084 131.645 180.768 128.543C181.186 126.635 181.622 124.664 182.199 122.852C183.334 119.295 185.445 112.674 190.514 111.823C192.265 111.53 193.779 111.875 195.014 112.849C196.709 114.187 197.628 116.546 198.117 118.936C199.835 118.64 201.458 119.265 203.145 119.913L203.691 120.123C207.925 121.727 212.88 121.472 217.107 119.52C215.647 118.716 214.277 117.707 213.048 116.336C211.339 114.435 209.467 110.422 211.719 107.752C212.918 106.331 215.091 106.118 218.179 107.119C220.561 107.895 222.854 108.971 223.488 111.582C224.205 114.546 222.849 117.551 219.948 119.435C220.9 119.824 221.893 120.168 222.922 120.509C223.325 120.644 223.747 120.768 224.183 120.889C225.796 120.259 227.463 119.949 228.852 120.39C230.067 120.776 230.9 121.673 231.334 123.059C232.359 123.527 233.305 124.1 234.094 124.835C236.544 127.117 237.438 131.584 236.088 134.79C233.822 140.179 227.088 140.797 225.079 140.857C220.682 140.991 216.841 138.651 215.319 134.894C215.178 134.546 215.06 134.195 214.966 133.844C213.619 133.952 212.27 134.017 210.934 134.083C208.291 134.212 205.558 134.345 202.967 134.8C202.347 134.907 201.648 135.018 200.894 135.137C194.906 136.08 184.884 137.656 183.641 143.818C183.142 146.29 183.806 149.183 185.371 151.369C186.7 153.223 188.53 154.385 190.523 154.644C194.039 155.099 197.218 154.128 199.719 151.841C199.348 151.544 198.989 151.211 198.648 150.844C196.237 148.237 195.966 143.495 198.056 140.486C199.167 138.886 201.732 136.968 203.661 137.522C204.414 137.74 205.333 138.415 205.422 140.394C205.61 144.602 204.247 148.686 201.727 151.625C205.796 153.86 211.122 152.498 213.49 151.695C214.687 151.289 215.793 150.882 216.747 150.375C216.586 150.321 216.428 150.263 216.273 150.199C214.797 149.578 213.748 148.471 213.159 146.909C212.317 144.682 212.932 141.947 214.62 140.404C216.025 139.121 217.901 138.904 219.77 139.809C222.436 141.101 221.646 145.049 221.388 146.345C221.136 147.608 220.643 148.612 219.98 149.43C221.431 149.322 222.896 148.894 224.066 148.38C225.207 147.88 226.243 147.27 227.244 146.681C229.657 145.262 231.937 143.922 235.203 144.288L235.059 145.576C232.221 145.257 230.22 146.434 227.903 147.798C226.868 148.405 225.798 149.035 224.588 149.567C222.92 150.3 220.687 150.867 218.609 150.724C217.282 151.702 215.63 152.337 213.906 152.923C211.295 153.808 205.358 155.304 200.81 152.595C200.746 152.657 200.68 152.718 200.617 152.777C198.268 154.936 195.387 156.049 192.201 156.049Z" fill="#FDA59C"/>
<path d="M263.708 236.446C260.732 235.177 257.453 234.471 254.008 234.471C240.346 234.471 229.269 245.543 229.269 259.199C229.269 267.032 232.916 274.008 238.604 278.539C238.194 278.213 237.79 277.879 237.404 277.528C240.376 260.576 250.107 245.922 263.708 236.446Z" fill="#FEA123"/>
<path d="M264.472 236.793C264.689 236.895 264.905 237.001 265.117 237.108C251.262 246.507 241.389 261.352 238.602 278.541C242.829 281.908 248.18 283.926 254.006 283.926C267.67 283.926 278.746 272.855 278.746 259.199C278.746 249.283 272.903 240.734 264.472 236.793Z" fill="#D81F33"/>
<path d="M263.713 236.448C263.968 236.557 264.222 236.675 264.474 236.792C264.223 236.673 263.968 236.557 263.713 236.448Z" fill="black"/>
<path d="M265.119 237.108C264.905 237 264.69 236.894 264.474 236.792C264.222 236.675 263.968 236.557 263.713 236.448C250.107 245.922 240.376 260.576 237.404 277.528C237.79 277.879 238.194 278.213 238.604 278.539C241.391 261.351 251.263 246.507 265.119 237.108Z" fill="#020A2E"/>
<path d="M58.6991 280.339C62.8854 281.447 67.468 283.021 70.8974 285.798C70.8667 283.776 70.0737 281.657 68.6542 280.262C67.4267 279.056 65.4543 278.571 62.628 278.776C60.8921 278.903 59.6519 279.429 58.6991 280.339ZM54.2307 281.058C52.4698 281.058 50.8944 281.479 50.4994 282.791C49.8778 284.851 51.589 286.754 53.4996 287.995C54.0246 287.165 54.4487 286.189 54.8146 284.994C55.2175 283.681 55.6729 282.374 56.3329 281.224C55.644 281.123 54.9231 281.058 54.2307 281.058ZM71.8317 288.579C71.7326 288.873 71.6162 289.158 71.4813 289.434C71.7313 289.41 71.9794 289.387 72.2259 289.367C72.301 289.36 72.3763 289.353 72.4509 289.347C72.2546 289.083 72.0476 288.828 71.8317 288.579ZM54.6748 288.666C55.1721 288.915 55.6533 289.111 56.0802 289.247C60.2618 290.577 65.047 290.087 69.6743 289.615C69.7283 289.608 69.7829 289.603 69.8368 289.598C69.9344 289.442 70.0288 289.284 70.1199 289.123C70.4067 288.618 70.6123 288.057 70.7397 287.462C67.4254 284.425 62.6284 282.77 58.2883 281.625C58.1187 281.58 57.9404 281.536 57.7554 281.493C57.0933 282.515 56.5872 283.818 56.1052 285.39C55.7091 286.682 55.2474 287.751 54.6748 288.666ZM51.9062 291.525C52.408 291.948 52.8626 292.446 53.2887 292.913C53.6766 293.34 54.0431 293.741 54.3994 294.042C56.3078 295.659 58.6344 296.279 61.1237 295.837C63.9336 295.338 66.7648 293.541 68.7891 291.061C64.5079 291.489 59.789 291.842 55.6713 290.534C55.0899 290.349 54.4767 290.094 53.8665 289.776C53.4658 290.248 53.0194 290.678 52.5191 291.08C52.3222 291.237 52.1167 291.383 51.9062 291.525ZM50.6792 292.279C49.5765 292.933 48.5603 293.58 48.1513 294.715C47.7604 295.8 47.8025 296.717 48.28 297.518C49.7746 300.025 55.1288 300.836 57.1444 301.142C62.8607 302.007 70.5781 301.98 73.5154 299.051C74.5878 297.981 74.9814 296.604 74.7187 294.841C74.4823 293.256 73.9844 291.859 73.2847 290.623C72.9715 290.653 72.6579 290.682 72.3437 290.71C71.776 290.759 71.1983 290.816 70.6123 290.875C68.3748 294.127 64.8585 296.544 61.3592 297.165C58.46 297.679 55.7517 296.955 53.5268 295.071C53.1042 294.713 52.6908 294.26 52.2914 293.822C51.7696 293.251 51.2353 292.665 50.6792 292.279ZM63.605 302.975C60.5575 302.975 57.8969 302.619 56.9422 302.475C53.2171 301.911 48.7347 300.917 47.1206 298.208C46.4331 297.056 46.3526 295.726 46.8817 294.258C47.2849 293.138 48.0722 292.389 48.9306 291.788C46.5672 291.832 42.9269 293.578 42.1976 295.212L40.9647 294.663C42.0573 292.215 47.418 289.85 50.2157 290.581C50.3633 290.619 50.507 290.668 50.6471 290.727C51.0157 290.502 51.3627 290.277 51.6746 290.027C52.0419 289.733 52.3759 289.419 52.6817 289.078C50.325 287.511 48.4008 285.076 49.2069 282.401C50.1695 279.209 54.6701 279.543 57.1746 280C58.3282 278.604 59.9797 277.617 62.5296 277.43C65.7678 277.195 68.0804 277.805 69.6006 279.299C71.5718 281.239 72.5102 284.258 72.1908 286.962C72.8682 287.642 73.4798 288.383 74.0115 289.195C76.7238 288.93 79.5192 288.705 82.3028 289.582C83.8295 290.062 85.7463 290.898 86.2098 292.156L84.9435 292.621C84.7419 292.075 83.546 291.387 81.8979 290.868C79.5588 290.132 77.2101 290.25 74.7521 290.48C75.3746 291.716 75.8231 293.096 76.0533 294.641C76.3794 296.828 75.846 298.633 74.4687 300.007C72.0797 302.388 67.523 302.975 63.605 302.975Z" fill="#2262EA"/>
<path d="M480.075 283.87C471.229 280.438 465.802 272.414 457.068 268.376C454.139 267.022 451.163 265.219 448.026 264.282C441.145 262.225 433.904 262.441 427.026 260.681C420.427 258.994 414.617 256.75 407.626 256.453C398.646 256.072 389.368 256.03 380.423 256.849C367.682 258.018 355.243 259.734 342.617 261.84C336.711 262.824 330.672 263.088 324.778 264.23C317.344 265.667 310.026 268.943 303.27 272.255C301.287 273.227 291.5 276.93 291.322 280.047C291.157 282.958 296.333 283.11 298.337 283.467C301.53 284.038 303.686 285.76 306.065 287.944C312.86 294.186 320.639 297.904 329.884 298.849C336.054 299.479 342.439 299.135 348.46 301.1C351.398 302.059 356.545 306.552 359.84 304.779C360.717 304.307 361.119 303.036 361.931 302.418C364.36 300.574 368.006 300.539 371.048 300.438C379.43 300.163 387.765 300.418 396.142 300.44C407.353 300.47 419.208 301.892 430.365 300.683C438.106 299.845 445.923 298.807 453.652 297.624C461.55 296.415 469.293 293.885 476.992 291.798C479.02 291.247 484.699 291.632 484.681 289.074C484.675 287.936 482.778 286.606 480.075 283.87Z" fill="#001674"/>
<path d="M328.494 265.729C331.315 266.24 333.984 268.183 336.482 269.373C340.283 271.183 344.522 272.9 348.683 273.622C353.841 274.519 358.703 273.629 363.852 273.414C370.821 273.121 377.693 272.596 384.661 272.91C393.228 273.296 401.73 275.17 410.324 275.496C417.381 275.764 424.123 277.442 431.05 278.535C433.478 278.918 436.698 279.074 438.968 278.045C442.659 276.374 438.567 273.775 438.177 271.622C440.821 270.161 451.289 269.298 444.445 265.158C443.024 264.298 441.529 263.467 439.993 262.68C435.646 262.1 431.266 261.766 427.024 260.681C420.427 258.994 414.615 256.75 407.627 256.453C398.646 256.072 389.368 256.03 380.425 256.849C367.681 258.018 355.242 259.734 342.617 261.84C336.711 262.824 330.673 263.088 324.778 264.23C324.283 264.325 323.79 264.429 323.3 264.54C322.827 265.788 327.342 265.523 328.494 265.729Z" fill="#020A2E"/>
<path d="M359.596 304.895C361.915 303.696 360.94 298.25 360.015 296.356C358.841 293.958 356.97 293.148 354.838 291.845C353.387 290.96 351.059 288.942 351.475 287.078C351.716 287.031 351.945 287.009 352.162 287.009C354.746 287.009 355.867 290.087 358.436 290.5C359.391 288.775 357.678 287.2 356.988 285.746C356.426 284.569 356.129 283.293 355.903 282C355.606 280.33 355.995 279.345 356.783 279.345C357.336 279.345 358.08 279.822 358.93 280.881C361.49 284.075 360.449 288.668 362.07 292.2C362.793 293.776 364.032 294.534 365.377 294.534C366.331 294.534 367.336 294.151 368.243 293.407C372.287 290.089 375.825 286.063 381.398 285.662C382.465 285.586 383.542 285.538 384.621 285.538C386.958 285.538 389.301 285.766 391.508 286.441C398.168 288.481 403.973 290.524 411.124 290.733C423.863 291.106 436.554 291.434 449.325 291.434C456.663 291.434 463.824 290.525 471.106 289.941C473.832 289.723 478.242 289.55 480.669 288.27C482.271 287.425 482.441 286.552 481.965 285.706C483.565 287.214 484.603 288.158 484.68 288.985C484.68 288.992 484.68 288.999 484.68 289.004C484.68 289.005 484.68 289.005 484.68 289.005C484.68 289.012 484.68 289.019 484.68 289.024C484.68 289.026 484.68 289.026 484.68 289.026C484.683 289.029 484.683 289.032 484.683 289.036C484.683 289.039 484.683 289.041 484.683 289.044V289.046C484.683 289.049 484.683 289.052 484.683 289.056C484.683 289.057 484.683 289.061 484.683 289.064V289.066C484.683 289.069 484.683 289.073 484.683 289.074C484.683 289.079 484.683 289.085 484.683 289.09C484.677 291.63 479.018 291.249 476.99 291.798C469.292 293.886 461.549 296.414 453.654 297.624C445.923 298.807 438.106 299.845 430.366 300.683C427.047 301.043 423.669 301.17 420.262 301.17C412.215 301.17 404.02 300.462 396.143 300.44C390.669 300.425 385.21 300.312 379.745 300.312C376.851 300.312 373.952 300.344 371.047 300.438C368.005 300.539 364.36 300.574 361.93 302.418C361.118 303.036 360.72 304.307 359.84 304.779C359.76 304.822 359.676 304.86 359.596 304.895Z" fill="#011362"/>
<path d="M358.108 305.187C354.935 305.187 350.921 301.903 348.461 301.1C342.439 299.135 336.055 299.479 329.885 298.849C320.637 297.904 312.86 294.186 306.064 287.944C303.686 285.76 301.533 284.038 298.335 283.467C298.331 283.467 298.327 283.466 298.322 283.466C298.32 283.464 298.32 283.464 298.318 283.464C298.313 283.464 298.313 283.464 298.311 283.462C298.307 283.462 298.305 283.462 298.302 283.462C298.3 283.461 298.3 283.461 298.298 283.461C298.294 283.461 298.291 283.459 298.289 283.459C298.287 283.459 298.287 283.459 298.285 283.459C297.093 283.252 294.854 283.108 293.236 282.443C295.413 282.415 297.69 282.052 298.917 281.918C299.214 281.884 299.498 281.869 299.767 281.869C302.819 281.869 303.999 283.901 306.566 285.835C311.748 289.738 316.625 292.932 322.975 294.492C325.552 295.125 328.183 295.399 330.872 295.399C331.589 295.399 332.312 295.38 333.036 295.343C335.634 295.209 338.281 294.218 340.939 294.218C341.719 294.218 342.498 294.304 343.28 294.52C349.146 296.156 351.742 303.775 357.808 305.049C358.075 305.107 358.324 305.133 358.553 305.133C358.68 305.133 358.804 305.125 358.92 305.108C358.656 305.162 358.385 305.187 358.108 305.187Z" fill="#011362"/>
<path d="M390.788 138.934C390.788 138.934 384.481 141.869 380.809 145.946C377.138 150.022 358.976 167.46 358.976 167.46C358.976 167.46 351.55 162.446 345.738 159.561C339.929 156.677 330.591 152.27 330.591 152.27C330.591 152.27 321.389 148.45 317.814 148.249C316.348 148.166 310.454 152.703 309.758 153.255C309.059 153.806 305.727 157.405 305.814 158.027C305.901 158.649 306.622 159.153 307.879 158.53C309.561 157.695 310.711 155.799 310.711 155.799L314.922 155.08C314.922 155.08 316.147 155.832 316.222 156.191C316.297 156.55 313.293 158.197 312.575 158.263C311.857 158.329 309.583 157.477 308.224 158.386C307.044 159.175 307.547 160.166 309.003 160.46C310.456 160.754 315.866 161.215 315.866 161.215L327.856 159.164C327.856 159.164 335.124 168.015 341.12 173.321C347.114 178.628 356.976 184.396 360.818 184.288C364.659 184.181 389.419 163.701 389.419 163.701L395.554 138.499L390.788 138.934Z" fill="#F68061"/>
<path d="M389.25 139.074C389.25 139.074 387.516 139.273 381.84 144.245C376.163 149.216 372.495 153.517 372.495 153.517C372.495 153.517 375.934 157.899 377.649 160.059C379.363 162.22 383.461 165.262 383.461 165.262L389.25 139.074Z" fill="#6991FF"/>
<path d="M377.623 93.473C377.623 93.473 375.842 96.6026 375.66 99.3639C375.476 102.126 376.026 107.219 376.026 107.219C376.026 107.219 374.001 109.643 373.112 110.379C372.22 111.116 371.27 111.607 371.361 112.189C371.452 112.772 373.511 114.061 374.001 114.399C374.491 114.736 373.635 117.436 373.88 117.835C374.125 118.234 376.304 118.541 377.133 118.633C377.961 118.725 377.961 118.725 377.961 118.725C377.961 118.725 375.352 120.597 375.168 120.934C374.983 121.272 375.044 121.763 375.536 121.916C376.026 122.069 376.026 122.069 376.026 122.069C376.026 122.069 376.211 125.905 376.885 127.286C377.562 128.666 380.785 128.267 382.657 127.623C384.531 126.979 385.882 126.457 385.882 126.457C385.882 126.457 388.779 134.097 388.367 137.534C387.958 140.97 379.333 163.464 379.333 163.464C379.333 163.464 398.223 147.646 403.135 147.319C408.048 146.991 411.698 143.343 411.698 143.343C411.698 143.343 402.938 133.197 401.221 124.197C399.501 115.196 405.477 107.342 401.956 97.5231C398.437 87.7045 381.083 91.4683 379.527 92.1229C377.971 92.7775 377.623 93.473 377.623 93.473Z" fill="#F68061"/>
<path d="M377.374 98.4727C375.727 98.498 374.592 98.8607 373.007 98.2027C371.757 97.6827 370.995 96.7969 370.368 95.6131C369.577 94.1241 369.327 92.2523 369.642 90.5645C369.893 89.2172 370.715 87.3801 371.809 86.5386C373.075 85.5644 376.161 84.1187 380.473 85.7515C381.097 85.9876 382.593 87.1207 383.115 87.0871C383.31 87.0743 384.13 86.2759 388.022 84.9215C391.063 83.863 396.24 83.6169 399.247 84.8962C413.745 91.0605 409.553 107.313 409.271 108.953C411.098 108.629 411.967 107.643 415.76 108.525C421.182 109.786 423.96 115.271 424.539 117.589C425.494 121.39 423.847 125.085 420.357 126.875C417.29 128.447 412.437 130.327 409.501 127.749C407.271 125.792 404.567 122.499 404.841 119.313C403.951 121.788 399.649 122.975 396.655 119.97C393.783 117.09 393.906 115.901 397.159 111.759C398.135 110.514 397.921 108.032 396.404 107.523C394.937 107.031 394.071 108.106 392.789 108.442C391.57 108.762 390.283 108.753 389.354 107.779C387.975 106.34 388.539 104.492 387.55 102.899C386.302 100.892 382.955 101.119 380.912 100.84C379.228 100.61 378.5 100.031 377.374 98.4727Z" fill="#020A2E"/>
<path d="M406.921 136.868C406.921 136.868 402.285 138.398 395.015 144.175C390.43 147.819 380.224 161.064 380.224 161.064C380.224 161.064 374.98 167.834 375.058 172.918C375.138 178.001 385.003 187.575 385.003 187.575L391.514 211.729C391.514 211.729 337.504 231.504 328.704 238.388C319.903 245.271 321.306 253.771 322.199 257.869C323.093 261.968 330.871 266.173 335.718 268.085C340.564 269.998 348.448 268.193 348.448 268.193C348.448 268.193 360.458 272.06 367.724 269.044C374.994 266.027 382.135 261.311 386.854 260.545C388.942 260.208 393.026 261.222 398.123 262.237C404.551 263.515 412.585 264.792 420.264 263.363C434.036 260.801 433.016 246.27 431.613 236.965C430.21 227.662 422.051 212.366 422.051 212.366C422.051 212.366 422.687 169.286 419.116 157.304C415.546 145.323 406.921 136.868 406.921 136.868Z" fill="#6991FF"/>
<path d="M392.719 166.736C392.636 167.075 391.747 177.324 391.317 186.066C390.825 196.095 390.751 200.679 390.751 200.679C390.751 200.679 381.284 202.213 372.783 204.337C364.282 206.461 353.116 209.435 353.116 209.435C353.116 209.435 347.592 207.331 345.742 206.886C343.891 206.439 341.841 206.631 340.279 206.344C338.717 206.056 337.889 206.025 337.856 206.854C337.825 207.682 338.633 208.637 340.322 209.116C342.011 209.595 342.809 209.116 343.957 210.103C345.105 211.091 343.766 211.729 343.256 211.984C342.745 212.238 339.832 213.131 338.016 213.514C336.2 213.895 332.415 213.418 331.237 214.214C330.056 215.01 331.237 215.935 331.237 215.935L332.098 216.127C332.098 216.127 329.928 215.904 329.608 216.668C329.291 217.434 330.406 218.261 331.811 218.453C333.213 218.644 333.213 218.644 333.213 218.644C333.213 218.644 331.971 218.357 331.714 218.866C331.46 219.376 331.747 220.332 332.829 220.619C333.914 220.906 334.892 220.938 334.892 220.938C334.892 220.938 334.572 221.289 335.179 221.798C335.783 222.308 341.6 222.25 342.872 222.167C346.316 221.944 354.081 217.874 354.081 217.874C354.081 217.874 377.058 218.549 385.643 218.293C394.228 218.038 400.84 215.722 402.966 214.278C405.092 212.834 408.231 202.333 410.903 187.826C412.689 178.139 414.017 168.711 414.017 168.711L392.719 166.736Z" fill="#F68061"/>
<path d="M364.547 269.914C364.547 269.914 367.98 268.703 372.572 264.497C377.161 260.292 382.901 255.83 387.875 255.702C392.849 255.575 420.393 266.154 422.56 266.409C423.538 266.524 425.249 265.506 427.088 264.49C429.315 263.256 431.736 262.022 433.271 262.807C436.077 264.243 439.65 273.293 441.561 275.586C443.475 277.881 447.045 278.644 450.104 282.851C453.166 287.058 454.186 289.352 453.166 290.117C452.147 290.881 433.018 284.381 426.64 281.704C420.264 279.027 419.883 278.644 416.185 278.263C412.487 277.881 364.547 269.914 364.547 269.914Z" fill="#F68061"/>
<path d="M423.698 266.21C423.698 266.21 428.106 272.082 431.87 273.993C435.63 275.906 440.922 279.027 441.562 280.111C442.199 281.194 439.966 280.749 439.075 280.557C438.181 280.366 437.415 281.449 436.65 283.617C435.884 285.783 435.884 285.783 435.884 285.783C435.884 285.783 446.917 289.224 449.211 289.862C451.508 290.499 453.357 290.882 454.058 290.562C454.76 290.245 455.397 289.607 455.397 289.607C455.397 289.607 452.527 283.106 450.231 280.621C447.937 278.136 443.855 276.606 442.581 275.523C441.305 274.44 439.776 271.763 439.776 271.763L441.008 270.905C441.008 270.905 437.832 264.512 436.524 262.841C435.376 261.375 433.993 260.334 433.993 260.334C433.993 260.334 429.892 261.884 427.981 263.031C426.067 264.18 423.698 266.21 423.698 266.21Z" fill="#2262EA"/>
<path d="M377.078 103.303C377.078 103.303 379.671 102.964 380.775 103.091C381.882 103.218 383.879 103.729 383.879 103.729C383.879 103.729 381.211 102.338 380.479 102.178C379.744 102.017 376.906 101.476 376.779 101.86C376.654 102.241 377.078 103.303 377.078 103.303Z" fill="#020A2E"/>
<path d="M377.931 105.744C377.94 105.381 377.994 105.077 379.362 105.491C380.733 105.905 381.883 107.02 381.724 107.243C381.564 107.466 378.631 107.466 378.31 107.402C377.994 107.339 377.919 106.17 377.931 105.744Z" fill="#020A2E"/>
<path d="M385.88 126.458C385.88 126.458 388.863 124.897 389.628 124.323C390.393 123.75 390.904 123.208 390.904 123.208C390.904 123.208 390.232 125.056 389.405 125.885C388.575 126.713 386.537 128.327 386.537 128.327L385.88 126.458Z" fill="#EA6B53"/>
<path d="M373.878 117.835C374.124 118.234 376.303 118.541 377.134 118.633C377.961 118.725 377.961 118.725 377.961 118.725C377.961 118.725 376.477 117.79 375.937 117.552C375.394 117.312 374.727 116.93 374.198 117.026C374.091 117.045 373.982 117.066 373.876 117.086C373.829 117.443 373.811 117.726 373.878 117.835Z" fill="#D81F33"/>
<path d="M376.415 121.359C376.797 120.865 377.961 118.725 377.961 118.725C377.961 118.725 375.353 120.597 375.167 120.934C374.984 121.271 375.044 121.763 375.536 121.916C375.578 121.929 375.61 121.939 375.643 121.949C375.946 121.814 376.22 121.612 376.415 121.359Z" fill="#D81F33"/>
<path d="M227.07 283.83L247.327 278.374L260.349 287.229L240.09 292.685L227.07 283.83Z" fill="#2262EA"/>
<path d="M195.01 253.541L235.939 281.373L207.282 289.09L202.885 286.1L225.755 279.942L211.925 270.538L191.203 276.118L186.806 273.128L207.529 267.548L189.223 255.099L195.01 253.541Z" fill="#FEA123"/>
<path d="M233.271 300.986L217.125 307.818L194.951 298.196L211.095 291.363L233.271 300.986Z" fill="#4475FF"/>
<path d="M288.854 315.934L272.924 322.676L221.5 300.363L238.136 293.322C243.144 291.203 248.459 289.836 254.08 289.222C259.685 288.6 265.353 288.719 271.085 289.579C276.801 290.431 282.32 292.012 287.643 294.322C293 296.646 296.654 299.053 298.605 301.541C300.539 304.022 300.713 306.489 299.125 308.94C297.521 311.383 294.097 313.715 288.854 315.934ZM273.651 317.633L282.927 313.708C287.195 311.901 289.912 310.048 291.078 308.149C292.244 306.249 292.001 304.351 290.349 302.453C288.697 300.555 285.779 298.698 281.594 296.882C277.442 295.081 273.188 293.818 268.83 293.094C264.456 292.363 260.113 292.221 255.8 292.669C251.471 293.109 247.29 294.183 243.257 295.89L233.275 300.114L273.651 317.633Z" fill="#FDF3F0"/>
<path d="M301.285 297.676L284.039 303.847L261.999 296.389L279.245 290.22L301.285 297.676Z" fill="#FFD7CC"/>
<path d="M360.095 291.292C365.711 293.192 369.556 295.195 371.631 297.3C373.706 299.405 374.095 301.462 372.799 303.47C371.503 305.478 368.598 307.29 364.084 308.905C359.57 310.52 354.447 311.58 348.714 312.087C342.98 312.594 337.06 312.516 330.954 311.853C324.848 311.19 318.987 309.909 313.371 308.009C307.755 306.109 303.909 304.106 301.835 302.001C299.76 299.895 299.37 297.839 300.666 295.831C301.962 293.822 304.867 292.011 309.381 290.396C313.895 288.781 319.019 287.72 324.752 287.213C330.486 286.706 336.405 286.784 342.512 287.447C348.618 288.11 354.479 289.392 360.095 291.292ZM353.893 293.511C349.282 291.951 344.624 290.909 339.919 290.384C335.231 289.853 330.771 289.777 326.541 290.157C322.327 290.53 318.618 291.29 315.413 292.437C312.209 293.583 310.12 294.898 309.148 296.38C308.193 297.855 308.535 299.404 310.173 301.026C311.829 302.642 314.962 304.23 319.573 305.79C324.184 307.35 328.833 308.395 333.521 308.926C338.226 309.45 342.686 309.526 346.899 309.153C351.13 308.773 354.848 308.01 358.053 306.864C361.257 305.717 363.337 304.406 364.292 302.93C365.264 301.448 364.922 299.899 363.267 298.284C361.628 296.662 358.503 295.071 353.893 293.511Z" fill="#020A2E"/>
<path d="M219.694 287.694L210.489 275.655L234.504 270.702L243.709 282.742L219.694 287.694Z" fill="#FFD7CC"/>
<path d="M172.711 292.363L224.126 281.76L235.273 296.34C237.494 299.246 238.707 301.77 238.911 303.912C239.132 306.051 238.558 307.796 237.188 309.147C235.835 310.495 233.904 311.428 231.393 311.946C229.184 312.401 227.116 312.458 225.188 312.117C223.272 311.789 221.5 311.196 219.875 310.337C218.259 309.491 216.794 308.512 215.479 307.401L214.977 307.504C215.852 308.801 216.281 310.198 216.263 311.695C216.244 313.191 215.63 314.568 214.42 315.823C213.21 317.079 211.249 317.986 208.538 318.545C205.96 319.077 203.279 319.079 200.494 318.554C197.708 318.028 194.93 316.864 192.157 315.063C189.385 313.261 186.743 310.718 184.231 307.432L172.711 292.363ZM182.095 296.274L189.755 306.293C192.277 309.592 194.854 311.772 197.486 312.832C200.145 313.903 202.604 314.205 204.863 313.739C206.604 313.38 207.936 312.689 208.858 311.666C209.798 310.639 210.203 309.369 210.073 307.856C209.959 306.339 209.207 304.671 207.816 302.851L199.97 292.588L182.095 296.274ZM205.393 291.47L212.554 300.837C213.717 302.358 215.133 303.653 216.804 304.723C218.484 305.806 220.269 306.57 222.158 307.013C224.058 307.47 225.911 307.512 227.719 307.14C229.978 306.674 231.407 305.64 232.005 304.04C232.619 302.436 231.867 300.249 229.75 297.479L222.464 287.949L205.393 291.47Z" fill="#D81F33"/>
<path d="M187.199 288.949L208.337 290.22L197.604 306.62L172.532 303.879L187.199 288.949Z" fill="#FFD7CC"/>
<path d="M228.261 248.227L235.336 248.623L179.458 290.625L172.491 290.234L187.441 245.939L194.516 246.335L181.36 283.591L181.795 283.616L228.261 248.227ZM211.815 264.935L183.295 263.337L187.099 258.702L215.619 260.3L211.815 264.935Z" fill="#001674"/>
<path d="M327.802 83.9353H291.332V85.2841H327.802V83.9353Z" fill="#FDA59C"/>
<path d="M314.797 94.8957H285.594V96.245H314.797V94.8957Z" fill="#FDA59C"/>
<path d="M321.535 96.2439H340.81V94.896H321.535V96.2439Z" fill="#FDA59C"/>
<path d="M288.781 105.692V107.04H343.488V105.692H288.781Z" fill="#FDA59C"/>
<path d="M296.814 117.686H334.051V116.336H296.814V117.686Z" fill="#FDA59C"/>
<path d="M314.794 127.091H328.311V125.742H314.794V127.091Z" fill="#FDA59C"/>
<path d="M158.786 173.553L166.983 189.588C166.983 189.588 169.752 189.113 174.085 188.883C178.801 188.631 186.438 188.8 186.438 188.8C186.438 188.8 190.385 186.532 191.623 186.181C194.503 185.363 196.248 183.522 196.801 183.966C197.492 184.518 196.541 186.073 195.523 186.728C194.504 187.385 193.839 187.813 193.839 187.813C193.839 187.813 196.69 188.024 197.169 187.994C197.648 187.962 200.865 185.391 201.794 185.457C202.723 185.522 201.381 187.052 200.988 187.472C200.593 187.892 197.391 192.889 196.492 193.302C195.595 193.714 188.004 193.455 188.004 193.455C188.004 193.455 181.38 196.671 176.655 198.108C171.931 199.546 164.536 200.691 162.476 199.36C160.416 198.03 147.977 179.453 147.977 179.453L158.786 173.553Z" fill="#F68061"/>
<path d="M153.279 164.896C148.769 160.494 143.103 161.739 140.624 157.309C140.116 156.402 139.512 154.615 139.501 153.356C141.079 153.235 143.613 150.023 145.168 145.967C146.967 141.275 145.431 138.229 145.431 138.229C147.293 128.98 143.278 126.605 143.278 126.605C143.278 126.605 132.922 122.153 126.975 127.44C121.028 132.724 125.387 139.035 125.387 139.035C125.387 139.035 122.47 138.855 123.051 141.42C123.633 143.982 126.285 145.729 126.285 145.729C126.285 145.729 127.206 147.712 127.619 149.507C128.022 151.796 128.439 155.218 127.819 157.317C126.823 160.689 117.25 161.484 113.629 166.122C110.009 170.76 157.789 169.297 153.279 164.896Z" fill="#F68061"/>
<path d="M135.894 121.69C134.625 121.485 133.329 121.448 132 121.448C129.122 121.448 126.517 122.64 124.461 124.56C120.287 128.456 118.987 135.092 120.801 140.422C121.197 141.584 121.635 142.8 121.919 144.009C122.158 145.023 121.668 145.05 120.864 145.527C120.03 146.023 119.537 146.441 119.245 147.364C119.042 148.007 119.146 148.587 119.15 149.213C119.155 150.169 118.592 150.503 117.836 151.072C116.56 152.033 116.518 152.924 116.459 154.513C116.415 155.719 115.792 155.431 114.828 155.816C114.151 156.085 113.683 156.533 113.332 157.198C113.003 157.821 112.668 160.217 112.977 160.956C111.708 160.798 110.331 160.916 109.455 161.846C108.6 162.753 107.562 163.616 107.338 164.849C107.092 166.197 107.306 166.847 105.807 167.24C104.492 167.584 103.882 167.806 103.455 169.071C103.176 169.897 103.009 171.504 103.465 172.3C104.098 173.401 105.153 173.265 104.594 174.849C104.343 175.561 103.893 176.384 104.183 177.191C104.6 178.347 106.299 178.52 107.341 178.352C109.793 177.956 111.399 174.624 112.06 172.565C112.472 171.282 113.133 171.023 114.287 170.328C115.638 169.514 116.373 168.432 116.569 166.83C116.785 165.049 115.977 162.122 114.693 161.364C115.439 161.235 116.208 160.95 116.544 160.809C117.95 160.222 118.313 159.267 118.659 157.96C118.977 156.758 119.858 156.985 120.912 156.536C121.968 156.085 122.864 155.248 123.065 154.128C123.222 153.26 123.008 152.641 123.574 151.887C124.232 151.01 125.276 150.348 126.072 149.583C127.539 148.172 128.638 145.945 127.477 143.913C126.342 141.927 123.996 141.897 123.642 139.262C123.129 135.443 125.86 133.967 127.977 131.463C129.037 130.211 129.991 128.849 130.846 127.45C131.879 125.76 132.377 125.488 134.25 125.435C135.546 125.396 137.862 125.364 138.617 122.832C138.149 122.123 136.695 121.821 135.894 121.69Z" fill="#020A2E"/>
<path d="M140.856 230.413C140.856 230.413 136.365 235.907 136.749 252.97C136.995 263.894 136.749 274.839 136.749 274.839C136.749 274.839 142.812 276.414 143.191 274.799C147.512 256.377 153.414 232.973 153.414 232.973L140.856 230.413Z" fill="#F68061"/>
<path d="M136.956 266.352C137.865 266.27 145.773 266.45 145.737 267.617C145.701 268.784 142.632 277.951 142.632 277.951L135.974 275.835C135.974 275.835 136.046 266.433 136.956 266.352Z" fill="#FDF3F0"/>
<path d="M135.815 273.296C135.815 273.296 134.337 275.973 133.75 278.07C133.163 280.168 133.288 282.342 133.288 282.342C133.288 282.342 137.793 284 140.948 283.981C144.103 283.963 147.004 285.043 149.457 285.263C151.911 285.482 153.205 285.174 154.055 284.814C154.904 284.456 154.887 281.707 153.979 280.935C153.072 280.161 146.753 276.955 145.795 275.817C144.838 274.678 145.854 272.357 144.722 272.414C143.59 272.472 142.394 272.703 141.951 273.466C141.508 274.228 142.45 276.76 142.45 276.76L135.815 273.296Z" fill="#FEA123"/>
<path d="M162.642 228.967C162.642 228.967 161.103 240.021 167.346 255.892C171.343 266.053 174.342 275.755 174.342 275.755C174.342 275.755 180.679 275.716 180.494 274.094C177.362 246.701 174.768 225.153 174.768 225.153L162.642 228.967Z" fill="#F68061"/>
<path d="M171.665 267.889C172.507 267.583 180.14 265.758 180.506 266.859C180.874 267.959 181.092 277.313 181.092 277.313L173.991 277.011C173.991 277.011 170.822 268.194 171.665 267.889Z" fill="#FDF3F0"/>
<path d="M172.964 274.676C172.964 274.676 172.472 277.553 172.631 279.664C172.791 281.775 173.245 283.842 173.245 283.842C173.245 283.842 178.129 284.257 181.143 283.444C184.155 282.631 187.304 282.91 189.728 282.497C192.152 282.085 193.285 281.469 193.975 280.92C194.666 280.369 194.116 277.739 192.981 277.244C191.847 276.749 184.694 275.343 183.386 274.519C182.077 273.694 182.252 271.266 181.186 271.605C180.123 271.944 179.058 272.462 178.896 273.286C178.735 274.112 180.508 276.245 180.508 276.245L172.964 274.676Z" fill="#FEA123"/>
<path d="M139.586 153.356C139.586 153.356 136.914 153.588 134.38 152.39C131.596 151.075 129.731 149.217 129.731 149.217C129.731 149.217 132.844 152.975 136.463 153.979C138.002 154.405 139.686 154.719 139.686 154.719L139.586 153.356Z" fill="#EA6B53"/>
<path d="M140.818 136.85C140.818 136.85 140.347 137.715 140.608 138.216C141.029 139.023 142.745 141.107 142.558 141.613C142.37 142.118 141.12 142.803 141.12 142.803C141.12 142.803 141.934 142.033 141.995 141.638C142.055 141.243 140.61 138.862 140.317 138.404C140.025 137.945 140.818 136.85 140.818 136.85Z" fill="#E0634B"/>
<path d="M145.508 137.833C145.191 137.579 144.75 137.29 144.173 137.201C143.234 137.059 142.653 137.583 142.345 138.006C142.188 138.222 142.313 138.53 142.579 138.562C142.978 138.61 143.529 138.662 143.915 138.646C144.4 138.622 145.072 138.493 145.489 138.357C145.486 138.253 145.502 137.937 145.508 137.833Z" fill="#020A2E"/>
<path d="M135.712 137.091C134.646 137.208 133.137 138.335 133.137 138.335C133.137 138.335 134.512 138.726 135.605 138.741C136.226 138.751 136.851 138.684 137.274 138.625C137.521 138.592 137.635 138.301 137.475 138.113C137.088 137.658 136.409 137.013 135.712 137.091Z" fill="#020A2E"/>
<path d="M141.835 135.969C141.835 135.969 142.879 135.31 143.966 135.156C144.892 135.023 145.864 135.191 145.864 135.191C145.864 135.191 145.956 134.916 145.886 134.891C145.786 134.854 145.046 134.699 143.958 134.726C142.87 134.753 142.25 134.946 142.111 135.114C141.971 135.28 141.835 135.969 141.835 135.969Z" fill="#020A2E"/>
<path d="M137.872 136.006C137.872 136.006 136.595 135.247 135.13 135.143C133.664 135.04 131.749 135.247 131.749 135.247C131.749 135.247 132.447 134.991 133.612 134.792C134.775 134.592 136.8 134.523 137.639 134.988C137.968 135.171 137.872 136.006 137.872 136.006Z" fill="#020A2E"/>
<path d="M126.919 158.612C126.919 158.612 130.759 162.837 135.754 162.696C140.748 162.557 141.586 158.612 141.586 158.612C141.586 158.612 152.403 162.32 153.897 163.432C156.402 165.294 165.087 184.075 165.087 184.075C165.087 184.075 162.177 186.029 159.29 187.356C157.208 188.312 153.897 189.521 153.897 189.521L151.676 186.308L149.025 202.213C152.797 206.417 170.61 213.756 173.265 220.087C175.918 226.416 178.572 239.022 178.572 239.022C178.572 239.022 169.911 241.032 165.301 241.59C160.691 242.149 159.2 239.083 154.978 240.055C150.755 241.026 148.537 243.929 143.088 243.178C137.64 242.428 126.603 240.752 126.603 240.752C126.603 240.752 129.269 231.665 128.291 229.85C127.314 228.035 116.702 228.198 116.702 228.198C113.192 218.322 120.583 201.934 120.583 201.934L115.147 163.814L126.919 158.612Z" fill="#FFBA16"/>
<path d="M132.515 204.461C132.515 204.461 142.595 205.346 143.503 205.183C144.411 205.02 148.812 203.274 148.812 203.274C148.812 203.274 145.878 206.206 143.922 206.904C141.966 207.603 136.378 205.509 133.165 205.998C129.952 206.486 128.066 205.998 128.066 205.998L132.515 204.461Z" fill="#FEA123"/>
<path d="M150.254 127.66C149.426 124.795 146.723 123.146 143.957 122.525C141.113 121.886 138.424 122.041 135.867 123.44C135.483 123.65 135.023 123.855 134.583 124.088C133.899 123.198 132.109 123.608 131.114 123.799C128.436 124.316 125.958 126.303 124.317 128.357C121.666 131.675 120.611 135.326 120.938 139.564C121.16 142.447 122.202 145.668 124.583 147.443C125.888 148.417 127.32 148.997 127.921 146.933C128.347 145.47 128.002 144.167 126.802 143.285C125.674 142.457 124.215 141.091 125.155 139.584C125.913 138.372 127.777 138.855 128.907 138.075C130.118 137.235 130.232 134.991 130.226 133.581C130.221 131.997 131.019 130.807 132.173 129.9C133.267 129.04 133.732 128.397 133.854 127.223C134.643 127.23 135.456 127.431 136.089 127.863C136.991 128.476 137.076 129.383 137.646 130.216C138.173 130.986 139.03 131.581 140.002 131.463C140.951 131.347 141.23 130.612 142.281 131.139C143.063 131.532 143.534 132.261 144.218 132.76C145.103 133.406 146.603 133.732 147.715 133.443C150.138 132.812 150.878 129.819 150.254 127.66Z" fill="#020A2E"/>
<path d="M141.764 147.396C141.609 148.058 141.147 148.295 140.533 148.185C139.654 148.029 138.387 146.37 138.387 146.37C138.387 146.37 138.639 146.007 139.278 145.463C139.918 144.918 141.036 144.691 141.533 144.765C142.03 144.837 142.165 145.284 142.165 145.284C142.044 145.572 141.644 145.724 141.816 146.488C141.832 146.56 141.836 146.625 141.848 146.696C141.854 146.84 141.841 147.067 141.764 147.396Z" fill="#020A2E"/>
<path d="M139.973 144.506C141.025 143.846 141.757 144.11 141.96 144.271C142.429 144.649 142.165 145.284 142.165 145.284C142.165 145.284 142.03 144.837 141.533 144.765C141.036 144.691 139.918 144.918 139.278 145.463C138.639 146.007 138.387 146.37 138.387 146.37C138.387 146.37 139.654 148.029 140.533 148.185C141.147 148.295 141.609 148.058 141.764 147.396C141.841 147.067 141.854 146.84 141.848 146.696C141.842 146.55 141.816 146.488 141.816 146.488C141.816 146.488 142.241 147.86 141.845 148.474C141.447 149.091 140.507 149.141 140.012 148.785C139.592 148.484 139.471 148.315 139.167 147.835C138.863 147.354 138.318 146.374 138.318 146.374C138.318 146.374 138.921 145.164 139.973 144.506Z" fill="#D81F33"/>
<path d="M123.725 180.08L121.923 197.996C121.923 197.996 124.509 199.097 128.275 201.249C132.375 203.593 138.703 207.87 138.703 207.87C138.703 207.87 143.249 208.1 144.481 208.476C147.345 209.348 149.81 208.745 150.034 209.418C150.314 210.256 148.672 211.047 147.461 211.047C146.251 211.047 145.459 211.047 145.459 211.047C145.459 211.047 147.741 212.77 148.16 213.002C148.579 213.235 152.677 212.815 153.422 213.375C154.167 213.932 152.211 214.491 151.652 214.631C151.094 214.77 145.692 217.237 144.714 217.098C143.736 216.958 137.496 212.629 137.496 212.629C137.496 212.629 130.185 211.746 125.435 210.396C120.685 209.045 113.849 206.004 112.838 203.771C111.828 201.536 111.441 179.186 111.441 179.186L123.725 180.08Z" fill="#F68061"/>
<path d="M126.919 158.612C126.919 158.612 115.67 161.95 113.378 164.792C111.05 167.677 107.788 188.528 107.788 188.528C107.788 188.528 111.771 189.902 115.147 190.204C118.585 190.513 123.456 190.706 123.456 190.706C123.456 190.706 125.505 177.208 125.691 174.231C125.877 171.252 126.919 158.612 126.919 158.612Z" fill="#FFBA16"/>
<path d="M123.456 190.706C123.456 190.706 123.466 184.019 123.595 182.05C123.725 180.08 122.408 174.231 122.408 174.231C122.408 174.231 123.708 179.662 124.154 181.282C124.601 182.901 123.456 190.706 123.456 190.706Z" fill="#FEA123"/>
<path d="M151.676 186.308L152.025 175.067L152.658 187.729L151.676 186.308Z" fill="#FEA123"/>
<path d="M391.901 176.575L390.904 168.832L393.683 157.105L392.72 166.735C392.667 166.953 392.285 171.232 391.901 176.575Z" fill="#5081F8"/>
<path d="M391.9 176.577V176.575C392.283 171.232 392.666 166.954 392.719 166.736L391.9 176.577Z" fill="#AC7691"/>
<path d="M336.467 260.359C336.467 260.359 332.047 256.557 333.579 249.615C335.108 242.673 361.903 233.343 361.903 233.343C361.903 233.343 338.659 244.555 335.959 248.621C333.259 252.686 336.467 260.359 336.467 260.359Z" fill="#5081F8"/>
<path d="M397.183 257.921C397.108 257.897 397.032 257.874 396.957 257.85L390.027 255.701C390.027 255.701 386.627 251.85 383.396 250.32C380.165 248.79 366.054 248.621 366.054 248.621C366.054 248.621 372.175 248.394 377.112 248.394C379.581 248.394 381.754 248.451 382.717 248.621C385.599 249.13 397.115 257.87 397.183 257.921Z" fill="#5081F8"/>
<path d="M397.184 257.921L396.957 257.85C397.032 257.873 397.108 257.897 397.184 257.921Z" fill="#AC7691"/>
</svg>
