<svg width="162" height="32" viewBox="0 0 162 32" fill="none" xmlns="http://www.w3.org/2000/svg">
<path d="M1 31C7.81635 22.5225 36.3713 -4.31521 34.0225 1.93424C30.7985 8.23182 24.3782 19.6062 20.0674 22.8616C14.6788 26.9308 44.1088 1.93424 42.0363 4.40483L29.7392 24.8962C27.8048 28.3839 57.6494 1.93424 57.0967 4.40483C56.498 8.23182 42.8653 26.2599 45.7668 23.4427C50.5567 18.7922 68.8411 5.42196 69.3938 6.58459C69.9465 7.31106 58.4784 25.9132 62.8998 22.1349C67.5976 17.8235 95.3696 -0.682317 94.8169 3.09655C93.4813 7.8924 86.582 18.5014 80.7237 22.5706C73.4007 27.6571 104.903 0.189656 105.318 4.69517C105.732 7.16544 94.9551 23.2972 100.344 19.8097C103.522 17.4841 116.233 4.11353 116.233 7.16576C116.233 10.3627 112.862 17.9782 108.219 22.8613C102.831 27.5115 132.658 1.20696 133.642 3.96852C134.886 7.45609 118.582 26.4945 123.971 22.1349C129.774 16.7575 146.354 0.189655 146.354 4.8405C146.63 7.45609 144.503 13.8512 140.413 20.827M140.551 20.9723C143.959 17.872 152.82 9.95639 161 3.09687" stroke="#FFA127" stroke-width="2" stroke-linecap="round"/>
</svg>
